<mxfile host="65bd71144e">
    <diagram id="aa6oNkOXARG3cdJFfNHn" name="Page-1">
        <mxGraphModel dx="389" dy="155" grid="1" gridSize="10" guides="1" tooltips="1" connect="1" arrows="1" fold="1" page="1" pageScale="1" pageWidth="850" pageHeight="1100" math="0" shadow="0">
            <root>
                <mxCell id="0"/>
                <mxCell id="1" parent="0"/>
                <mxCell id="4" value="User" style="swimlane;whiteSpace=wrap;html=1;" vertex="1" parent="1">
                    <mxGeometry x="80" y="80" width="200" height="540" as="geometry"/>
                </mxCell>
                <mxCell id="5" value="Membuka halaman SKHP" style="rounded=1;whiteSpace=wrap;html=1;" vertex="1" parent="4">
                    <mxGeometry x="50" y="120" width="100" height="50" as="geometry"/>
                </mxCell>
                <mxCell id="6" value="" style="ellipse;html=1;shape=startState;fillColor=#000000;strokeColor=#ff0000;" vertex="1" parent="4">
                    <mxGeometry x="85" y="50" width="30" height="30" as="geometry"/>
                </mxCell>
                <mxCell id="7" value="" style="edgeStyle=orthogonalEdgeStyle;html=1;verticalAlign=bottom;endArrow=open;endSize=8;strokeColor=#ff0000;entryX=0.5;entryY=0;entryDx=0;entryDy=0;" edge="1" parent="4" source="6" target="5">
                    <mxGeometry relative="1" as="geometry">
                        <mxPoint x="100" y="140" as="targetPoint"/>
                    </mxGeometry>
                </mxCell>
                <mxCell id="8" value="Pilih tombol update pada data" style="rounded=1;whiteSpace=wrap;html=1;" vertex="1" parent="4">
                    <mxGeometry x="50" y="210" width="100" height="50" as="geometry"/>
                </mxCell>
                <mxCell id="9" value="Update data PLO" style="rounded=1;whiteSpace=wrap;html=1;" vertex="1" parent="4">
                    <mxGeometry x="50" y="300" width="100" height="50" as="geometry"/>
                </mxCell>
                <mxCell id="10" value="Admin" style="swimlane;whiteSpace=wrap;html=1;" vertex="1" parent="1">
                    <mxGeometry x="280" y="80" width="200" height="540" as="geometry"/>
                </mxCell>
                <mxCell id="11" value="Menampilkan halaman SKHP" style="rounded=1;whiteSpace=wrap;html=1;" vertex="1" parent="10">
                    <mxGeometry x="50" y="120" width="100" height="50" as="geometry"/>
                </mxCell>
                <mxCell id="12" value="Menampilkan halaman update data" style="rounded=1;whiteSpace=wrap;html=1;" vertex="1" parent="10">
                    <mxGeometry x="50" y="210" width="100" height="50" as="geometry"/>
                </mxCell>
                <mxCell id="13" value="" style="edgeStyle=none;html=1;exitX=0.498;exitY=0.962;exitDx=0;exitDy=0;exitPerimeter=0;" edge="1" parent="10" source="14" target="17">
                    <mxGeometry relative="1" as="geometry"/>
                </mxCell>
                <mxCell id="14" value="Validasi Data" style="rhombus;whiteSpace=wrap;html=1;rounded=1;" vertex="1" parent="10">
                    <mxGeometry x="45" y="292.5" width="110" height="65" as="geometry"/>
                </mxCell>
                <mxCell id="15" value="" style="edgeStyle=elbowEdgeStyle;elbow=horizontal;endArrow=classic;html=1;curved=0;rounded=0;endSize=8;startSize=8;exitX=0.959;exitY=0.495;exitDx=0;exitDy=0;entryX=1;entryY=0.5;entryDx=0;entryDy=0;exitPerimeter=0;" edge="1" parent="10" source="14" target="12">
                    <mxGeometry width="50" height="50" relative="1" as="geometry">
                        <mxPoint x="230" y="330" as="sourcePoint"/>
                        <mxPoint x="280" y="280" as="targetPoint"/>
                        <Array as="points">
                            <mxPoint x="180" y="280"/>
                        </Array>
                    </mxGeometry>
                </mxCell>
                <mxCell id="16" value="" style="edgeStyle=none;html=1;" edge="1" parent="10" source="17" target="18">
                    <mxGeometry relative="1" as="geometry"/>
                </mxCell>
                <mxCell id="17" value="Perubahan Data Tersimpan" style="rounded=1;whiteSpace=wrap;html=1;" vertex="1" parent="10">
                    <mxGeometry x="50" y="390" width="100" height="50" as="geometry"/>
                </mxCell>
                <mxCell id="18" value="" style="ellipse;html=1;shape=endState;fillColor=#000000;strokeColor=#ff0000;" vertex="1" parent="10">
                    <mxGeometry x="85" y="490" width="30" height="30" as="geometry"/>
                </mxCell>
                <mxCell id="19" value="Ya" style="text;html=1;align=center;verticalAlign=middle;whiteSpace=wrap;rounded=0;" vertex="1" parent="10">
                    <mxGeometry x="87" y="357.5" width="50" height="20" as="geometry"/>
                </mxCell>
                <mxCell id="20" value="Tidak" style="text;html=1;align=center;verticalAlign=middle;whiteSpace=wrap;rounded=0;" vertex="1" parent="10">
                    <mxGeometry x="138" y="270" width="50" height="20" as="geometry"/>
                </mxCell>
                <mxCell id="21" value="" style="edgeStyle=none;html=1;" edge="1" parent="1" source="5" target="11">
                    <mxGeometry relative="1" as="geometry"/>
                </mxCell>
                <mxCell id="22" value="" style="edgeStyle=elbowEdgeStyle;elbow=vertical;endArrow=classic;html=1;curved=0;rounded=0;endSize=8;startSize=8;exitX=0.5;exitY=1;exitDx=0;exitDy=0;entryX=0.5;entryY=0;entryDx=0;entryDy=0;" edge="1" parent="1" source="11" target="8">
                    <mxGeometry width="50" height="50" relative="1" as="geometry">
                        <mxPoint x="350" y="340" as="sourcePoint"/>
                        <mxPoint x="400" y="290" as="targetPoint"/>
                    </mxGeometry>
                </mxCell>
                <mxCell id="23" value="" style="edgeStyle=none;html=1;" edge="1" parent="1" source="8" target="12">
                    <mxGeometry relative="1" as="geometry"/>
                </mxCell>
                <mxCell id="24" value="" style="edgeStyle=elbowEdgeStyle;elbow=vertical;endArrow=classic;html=1;curved=0;rounded=0;endSize=8;startSize=8;exitX=0.5;exitY=1;exitDx=0;exitDy=0;entryX=0.5;entryY=0;entryDx=0;entryDy=0;" edge="1" parent="1" source="12" target="9">
                    <mxGeometry width="50" height="50" relative="1" as="geometry">
                        <mxPoint x="320" y="400" as="sourcePoint"/>
                        <mxPoint x="170" y="380" as="targetPoint"/>
                    </mxGeometry>
                </mxCell>
                <mxCell id="25" value="" style="edgeStyle=none;html=1;entryX=0.047;entryY=0.495;entryDx=0;entryDy=0;entryPerimeter=0;" edge="1" parent="1">
                    <mxGeometry relative="1" as="geometry">
                        <mxPoint x="230" y="405" as="sourcePoint"/>
                        <mxPoint x="329.16999999999996" y="404.675" as="targetPoint"/>
                    </mxGeometry>
                </mxCell>
            </root>
        </mxGraphModel>
    </diagram>
</mxfile>